# xmcd
#
# Track frame offsets: 
#        150
#        11639
#        21883
#        36220
#        49002
#        60954
#        76617
#        89022
#        103247
#        119249
#        133360
#        144605
#        160280
#
# Disc length: 2404 seconds
#
# Revision: 0
# Processed by: cddbd v1.5.2PL0 Copyright (c) Steve Scherf et al.
# Submitted via: ExactAudioCopy v0.99pb3
#
DISCID=b409620d
DTITLE=Benny And The Fly By Niters - Hey Now
DYEAR=2007
DGENRE=Blues
TTITLE0=Hey Now
TTITLE1=Tell Me Pretty Baby
TTITLE2=Let's Rock And Roll
TTITLE3=Atom Bomb
TTITLE4=Tall Skinny Mama
TTITLE5=Why'd You Lie To Me
TTITLE6=Hammerhead
TTITLE7=Loosen Up
TTITLE8=Daybreak
TTITLE9=Big Black Train
TTITLE10=I've Got A Woman
TTITLE11=Babyface Shuffle
TTITLE12=RM Blues
EXTD=
EXTT0=
EXTT1=
EXTT2=
EXTT3=
EXTT4=
EXTT5=
EXTT6=
EXTT7=
EXTT8=
EXTT9=
EXTT10=
EXTT11=
EXTT12=
PLAYORDER=
